<svg xmlns="http://www.w3.org/2000/svg" viewBox="0 0 1200 420">
<defs>
  <radialGradient id="bg"><stop stop-color="#18245a"/><stop offset=".45" stop-color="#080d22"/><stop offset="1" stop-color="#02040d"/></radialGradient>
  <radialGradient id="neb"><stop stop-color="#7c3aed" stop-opacity=".45"/><stop offset="1" stop-color="#7c3aed" stop-opacity="0"/></radialGradient>
  <filter id="glow"><feGaussianBlur stdDeviation="3" result="b"/><feMerge><feMergeNode in="b"/><feMergeNode in="SourceGraphic"/></feMerge></filter>
</defs>
<rect width="1200" height="420" rx="20" fill="url(#bg)"/>
<ellipse cx="250" cy="100" rx="330" ry="180" fill="url(#neb)"/>
<ellipse cx="930" cy="300" rx="360" ry="190" fill="url(#neb)"/>
<g fill="#fff" filter="url(#glow)">
  <circle cx="55" cy="65" r="2"/><circle cx="135" cy="180" r="1.5"/><circle cx="210" cy="45" r="1"/><circle cx="310" cy="125" r="2"/>
  <circle cx="400" cy="60" r="1.5"/><circle cx="505" cy="165" r="1"/><circle cx="590" cy="50" r="2"/><circle cx="680" cy="120" r="1.4"/>
  <circle cx="760" cy="65" r="1"/><circle cx="845" cy="175" r="2"/><circle cx="1010" cy="75" r="1.5"/><circle cx="1135" cy="145" r="2"/>
  <circle cx="80" cy="315" r="1"/><circle cx="180" cy="370" r="2"/><circle cx="350" cy="300" r="1.3"/><circle cx="460" cy="355" r="2"/>
  <circle cx="610" cy="285" r="1"/><circle cx="720" cy="370" r="1.5"/><circle cx="820" cy="300" r="2"/><circle cx="1090" cy="350" r="1.4"/>
</g>
<g>
 <circle cx="945" cy="105" r="48" fill="#172554" stroke="#8b5cf6" stroke-width="2"/>
 <ellipse cx="945" cy="105" rx="65" ry="17" fill="none" stroke="#67e8f9" stroke-width="3" opacity=".7"/>
 <circle cx="928" cy="89" r="6" fill="#c4b5fd" opacity=".5"/>
</g>
<g transform="translate(135 285)">
 <path d="M0 30 C70 -5 125 0 180 35 C130 62 65 66 0 30Z" fill="#e0f2fe" opacity=".9"/>
 <circle cx="95" cy="31" r="17" fill="#22d3ee" filter="url(#glow)"/>
 <circle cx="95" cy="31" r="8" fill="#020617"/>
 <path d="M175 30l35-13-20 17 20 17z" fill="#f97316" opacity=".9"/>
</g>
<text x="600" y="225" text-anchor="middle" fill="#f8fafc" font-family="Arial, Helvetica, sans-serif" font-size="54" font-weight="800">ABHAY9073</text>
<text x="600" y="265" text-anchor="middle" fill="#a5b4fc" font-family="Arial, Helvetica, sans-serif" font-size="21">AI • ML • COMPUTER VISION • EMBEDDED SYSTEMS</text>
<text x="600" y="305" text-anchor="middle" fill="#94a3b8" font-family="monospace" font-size="16">EXPLORING THE UNIVERSE OF INTELLIGENT SYSTEMS</text>
<path d="M0 418H1200" stroke="#6366f1" stroke-width="2"/>
</svg>